<svg xmlns="http://www.w3.org/2000/svg" width="28.095" height="33.363" viewBox="0 0 28.095 33.363">
  <path id="ic_directions_transit_24px" d="M18.048,2C10.286,2,4,2.878,4,9.024V25.705a6.153,6.153,0,0,0,6.146,6.146L7.512,34.485v.878H28.583v-.878l-2.634-2.634A6.153,6.153,0,0,0,32.1,25.705V9.024C32.1,2.878,25.809,2,18.048,2Zm-7.9,26.339a2.634,2.634,0,1,1,2.634-2.634A2.63,2.63,0,0,1,10.146,28.339ZM16.292,17.8H7.512V9.024h8.78Zm9.658,10.536a2.634,2.634,0,1,1,2.634-2.634A2.63,2.63,0,0,1,25.949,28.339ZM28.583,17.8H19.8V9.024h8.78Z" transform="translate(-4 -2)" fill="#fffdfd"/>
</svg>
